<?xml version="1.0" encoding="UTF-8"?>
<svg width="100px" height="100px" viewBox="0 0 100 100" version="1.1" xmlns="http://www.w3.org/2000/svg" xmlns:xlink="http://www.w3.org/1999/xlink">
    <!-- Generator: Sketch 58 (84663) - https://sketch.com -->
    <title>Group</title>
    <desc>Created with Sketch.</desc>
    <g id="Page-1" stroke="none" stroke-width="1" fill="none" fill-rule="evenodd">
        <g id="Group">
            <rect id="Rectangle" fill="#2F83DF" x="0" y="0" width="100" height="100" rx="23"></rect>
            <path d="M28.3704637,18.4282859 L37.9810002,18.4282859 C46.2426894,16.4818254 54.6729845,16.5664541 62.513159,18.4282859 L72.6295131,18.4282859 C75.1586016,18.4282859 77.1818725,20.1208604 77.1818725,22.3212071 L77.1818725,36.0310599 L80.5539905,36.0310599 C82.1557466,36.2003173 82.9987761,37.215862 82.9987761,38.9084364 L82.9987761,47.7944521 C83.0830791,49.2331403 78.7836285,49.0638829 78.9522344,47.7944521 L79.0365374,38.9930651 C79.1208404,38.4006641 78.4464167,38.2314066 77.1818725,38.2314066 L77.1818725,74.2832417 C77.1818725,76.314331 75.2429046,78.0069055 72.798119,78.0915342 L72.798119,81.0535394 C72.798119,82.1537128 71.8707865,83 70.6062423,83 L65.3794593,83 C64.114915,83 63.1032796,82.1537128 63.1032796,81.0535394 L63.1032796,78.0915342 L38.9083326,78.0915342 L38.9083326,81.0535394 C38.9083326,82.1537128 37.8966972,83 36.7164559,83 L31.4896729,83 C30.1408257,83 29.1291903,82.1537128 29.1291903,81.0535394 L29.1291903,78.0915342 C26.7687076,78.0915342 23.9867103,77.1606183 23.9867103,74.2832417 L23.9867103,38.2314066 C22.637863,38.2314066 21.8791365,38.4006641 21.9634394,38.9930651 L22.0477424,47.7944521 C22.3006512,49.0638829 17.9168978,49.2331403 18.0012007,47.7944521 L18.0012007,38.9084364 C18.0012007,37.215862 18.8442302,36.2003173 20.5302893,36.0310599 L23.9867103,36.0310599 L23.9867103,22.3212071 C23.9867103,20.1208604 26.0099811,18.4282859 28.3704637,18.4282859 Z M42.1353077,70 L59.8966796,70 C62.7011068,70 62.7011068,74 59.8966796,74 L42.1353077,74 C39.3308806,74 39.245898,70 42.1353077,70 Z M66.0425532,67 C64.9361702,67 64,67.9 64,69 C64,70.1 64.9361702,71 66.0425532,71 C67.0638298,71 68,70.1 68,69 C68,67.9 67.0638298,67 66.0425532,67 Z M72.5,65 C71.1764706,65 70,65.8965517 70,67 C70,68.1034483 71.1764706,69 72.5,69 C73.8970588,69 75,68.1034483 75,67 C75,65.8965517 73.8970588,65 72.5,65 Z M36,67 C37.1304348,67 38,67.9 38,69 C38,70.1 37.1304348,71 36,71 C34.9565217,71 34,70.1 34,69 C34,67.9 34.9565217,67 36,67 Z M28.5,65 C29.8235294,65 31,65.8965517 31,67 C31,68.1034483 29.8235294,69 28.5,69 C27.1029412,69 26,68.1034483 26,67 C26,65.8965517 27.1029412,65 28.5,65 Z M34.4073857,23 L66.5926143,23 C69.8024619,23 69.8024619,27 66.5926143,27 L34.4073857,27 C31.1975381,27 31.1975381,23 34.4073857,23 Z M27.1758664,34.0871784 C27.007126,32.8728537 27.3446068,31.9187415 29.1163813,32.0054789 L70.9640067,32.0054789 C72.7357812,31.9187415 72.9888918,32.8728537 72.9888918,34.0871784 L72.9888918,56.5521852 C73.8325939,61.1492716 26.3321643,61.1492716 27.007126,56.5521852 L27.1758664,34.0871784 Z" id="Shape" fill="#FFFFFF" transform="translate(50.500000, 50.000000) scale(-1, 1) translate(-50.500000, -50.000000) "></path>
        </g>
    </g>
</svg>